<svg width="36" height="36" viewBox="0 0 36 36" fill="none" xmlns="http://www.w3.org/2000/svg">
<path d="M21.1252 32.6247C21.1252 32.9231 21.0067 33.2092 20.7957 33.4202C20.5847 33.6312 20.2986 33.7497 20.0002 33.7497H8.75018C8.45182 33.7497 8.16567 33.6312 7.95469 33.4202C7.74371 33.2092 7.62518 32.9231 7.62518 32.6247C7.62518 32.3263 7.74371 32.0402 7.95469 31.8292C8.16567 31.6182 8.45182 31.4997 8.75018 31.4997H20.0002C20.2986 31.4997 20.5847 31.6182 20.7957 31.8292C21.0067 32.0402 21.1252 32.3263 21.1252 32.6247ZM26.7502 14.6247C26.755 16.5001 26.3314 18.3519 25.5115 20.0386C24.6917 21.7254 23.4973 23.2025 22.0196 24.3573C21.7433 24.5691 21.519 24.8413 21.364 25.153C21.209 25.4648 21.1273 25.8078 21.1252 26.1559V26.9997C21.1252 27.5964 20.8881 28.1687 20.4662 28.5907C20.0442 29.0126 19.4719 29.2497 18.8752 29.2497H9.87518C9.27845 29.2497 8.70615 29.0126 8.28419 28.5907C7.86224 28.1687 7.62518 27.5964 7.62518 26.9997V26.1559C7.62495 25.812 7.54586 25.4726 7.39398 25.164C7.24211 24.8554 7.02149 24.5857 6.74909 24.3756C5.27525 23.2278 4.0818 21.7597 3.25905 20.0826C2.43631 18.4054 2.00583 16.5631 2.00018 14.695C1.96362 7.99141 7.3805 2.4114 14.0771 2.24969C15.7271 2.20992 17.3684 2.50064 18.9044 3.10471C20.4404 3.70879 21.84 4.61402 23.0209 5.76713C24.2018 6.92023 25.14 8.29792 25.7805 9.81909C26.421 11.3403 26.7507 12.9742 26.7502 14.6247ZM24.5002 14.6247C24.5006 13.2742 24.2308 11.9373 23.7067 10.6927C23.1827 9.44801 22.4149 8.32077 21.4487 7.37731C20.4824 6.43385 19.3372 5.69322 18.0804 5.19902C16.8235 4.70483 15.4806 4.46705 14.1305 4.49969C8.64612 4.62906 4.22065 9.19516 4.25018 14.6795C4.25522 16.2076 4.60778 17.7144 5.28118 19.0861C5.95458 20.4577 6.93118 21.6582 8.13706 22.5967C8.67909 23.0181 9.11752 23.5579 9.41879 24.1748C9.72005 24.7917 9.87617 25.4694 9.87518 26.1559V26.9997H13.2502V20.7152L9.07925 16.5456C8.86815 16.3345 8.74956 16.0482 8.74956 15.7497C8.74956 15.4512 8.86815 15.1648 9.07925 14.9537C9.29034 14.7427 9.57665 14.6241 9.87518 14.6241C10.1737 14.6241 10.46 14.7427 10.6711 14.9537L14.3752 18.6592L18.0792 14.9537C18.1838 14.8492 18.3079 14.7663 18.4444 14.7097C18.581 14.6532 18.7274 14.6241 18.8752 14.6241C19.023 14.6241 19.1694 14.6532 19.3059 14.7097C19.4425 14.7663 19.5666 14.8492 19.6711 14.9537C19.7756 15.0583 19.8586 15.1824 19.9151 15.3189C19.9717 15.4555 20.0008 15.6019 20.0008 15.7497C20.0008 15.8975 19.9717 16.0439 19.9151 16.1804C19.8586 16.317 19.7756 16.4411 19.6711 16.5456L15.5002 20.7152V26.9997H18.8752V26.1559C18.8764 25.4674 19.0351 24.7882 19.339 24.1704C19.6429 23.5525 20.0841 23.0123 20.6288 22.5911C21.8383 21.6459 22.8158 20.4368 23.4868 19.0561C24.1577 17.6754 24.5044 16.1597 24.5002 14.6247Z" fill="#CDFF41"/>
</svg>
